<mxfile host="drawio-plugin" modified="2022-06-28T09:31:26.630Z" agent="5.0 (Macintosh; Intel Mac OS X 10_15_7) AppleWebKit/537.36 (KHTML, like Gecko) Chrome/89.0.4389.114 Safari/537.36" version="15.5.4" etag="FiwvovHLLwb5vFPDJNat" type="embed"><diagram id="gDEezIWL6iPdBnkZr98c" name="Page-1"><mxGraphModel dx="715" dy="633" grid="1" gridSize="10" guides="1" tooltips="1" connect="1" arrows="1" fold="1" page="1" pageScale="1" pageWidth="850" pageHeight="1100" math="0" shadow="0"><root><mxCell id="0"/><mxCell id="1" parent="0"/><mxCell id="5" value="" style="rounded=1;whiteSpace=wrap;html=1;" vertex="1" parent="1"><mxGeometry x="70" y="130" width="210" height="230" as="geometry"/></mxCell><mxCell id="6" value="Landing App" style="text;html=1;align=center;verticalAlign=middle;resizable=0;points=[];autosize=1;strokeColor=none;fillColor=none;" vertex="1" parent="1"><mxGeometry x="125" y="160" width="80" height="20" as="geometry"/></mxCell><mxCell id="8" value="" style="rounded=1;whiteSpace=wrap;html=1;" vertex="1" parent="1"><mxGeometry x="440" y="130" width="210" height="230" as="geometry"/></mxCell><mxCell id="9" value="LK App" style="text;html=1;align=center;verticalAlign=middle;resizable=0;points=[];autosize=1;strokeColor=none;fillColor=none;" vertex="1" parent="1"><mxGeometry x="530" y="160" width="50" height="20" as="geometry"/></mxCell><mxCell id="13" style="edgeStyle=orthogonalEdgeStyle;rounded=0;orthogonalLoop=1;jettySize=auto;html=1;" edge="1" parent="1" source="10" target="5"><mxGeometry relative="1" as="geometry"/></mxCell><mxCell id="14" style="edgeStyle=orthogonalEdgeStyle;rounded=0;orthogonalLoop=1;jettySize=auto;html=1;" edge="1" parent="1" source="10" target="8"><mxGeometry relative="1" as="geometry"/></mxCell><mxCell id="10" value="" style="rounded=1;whiteSpace=wrap;html=1;" vertex="1" parent="1"><mxGeometry x="280" y="450" width="160" height="130" as="geometry"/></mxCell><mxCell id="12" value="NPM Lib&amp;nbsp;" style="text;html=1;align=center;verticalAlign=middle;resizable=0;points=[];autosize=1;strokeColor=none;fillColor=none;" vertex="1" parent="1"><mxGeometry x="330" y="480" width="60" height="20" as="geometry"/></mxCell></root></mxGraphModel></diagram></mxfile>